<?xml version="1.0" encoding="UTF-8"?>
<svg id="Layer_2" data-name="Layer 2" xmlns="http://www.w3.org/2000/svg" viewBox="0 0 503 802">
  <defs>
    <style>
      .cls-1 {
        fill: #603c06;
        stroke-width: 3px;
      }

      .cls-1, .cls-2, .cls-3 {
        stroke: #000;
      }

      .cls-2 {
        fill: none;
        stroke-linecap: round;
      }

      .cls-3 {
        fill: #0a7f00;
        stroke-miterlimit: 10;
        stroke-width: 2px;
      }

      .cls-4 {
        fill: #1e1e1e;
      }
    </style>
  </defs>
  <g id="Layer_1-2" data-name="Layer 1">
    <g id="Layer_1-3" data-name="Layer 1">
      <path class="cls-4" d="m501.5,11.48v778.15c0,5.49-4.5,9.98-10,9.98h-63.5c-5.16,0-9.43-3.95-9.95-8.96-.52,5.01-4.79,8.96-9.95,8.96h-36c-1.67,0-3.26-.42-4.65-1.15-1.39.73-2.98,1.15-4.65,1.15h-36c-2.05,0-3.96-.62-5.55-1.69-1.59,1.07-3.5,1.69-5.55,1.69h-36c-4.53,0-8.39-3.05-9.6-7.19-1.21,4.14-5.07,7.19-9.6,7.19h-72.3c-2.23,0-4.29-.73-5.95-1.98-1.66,1.25-3.72,1.98-5.95,1.98h-36c-1.5,0-2.92-.33-4.2-.93-1.28.6-2.7.93-4.2.93h-36c-.85,0-1.67-.11-2.45-.31-.78.2-1.6.31-2.45.31h-36c-1.33,0-2.59-.26-3.75-.74-1.16.48-2.42.74-3.75.74H11.5c-5.5,0-10-4.49-10-9.98V11.48C1.5,5.99,6,1.5,11.5,1.5h36c1.33,0,2.59.26,3.75.74,1.16-.48,2.42-.74,3.75-.74h36c.85,0,1.67.11,2.45.31.78-.2,1.6-.31,2.45-.31h36c1.5,0,2.92.33,4.2.93,1.28-.6,2.7-.93,4.2-.93h36c2.23,0,4.29.73,5.95,1.98,1.66-1.25,3.72-1.98,5.95-1.98h72.3c4.53,0,8.39,3.05,9.6,7.19,1.21-4.14,5.07-7.19,9.6-7.19h36c2.05,0,3.96.62,5.55,1.69,1.59-1.07,3.5-1.69,5.55-1.69h36c1.67,0,3.26.42,4.65,1.15,1.39-.73,2.98-1.15,4.65-1.15h36c5.16,0,9.43,3.95,9.95,8.96.52-5.01,4.79-8.96,9.95-8.96h63.5c5.5,0,10,4.49,10,9.98Z"/>
      <path class="cls-1" d="m186.3,11.48v778.15c0,3.26-1.6,6.18-4.05,8-1.66,1.25-3.72,1.98-5.95,1.98h-36c-1.5,0-2.92-.33-4.2-.93-3.42-1.59-5.8-5.06-5.8-9.05V11.48c0-3.99,2.38-7.46,5.8-9.05,1.28-.6,2.7-.93,4.2-.93h36c2.23,0,4.29.73,5.95,1.98,2.45,1.83,4.05,4.74,4.05,8Z"/>
      <path class="cls-1" d="m141.9,11.48v778.15c0,3.99-2.38,7.46-5.8,9.05-1.28.6-2.7.93-4.2.93h-36c-.85,0-1.67-.11-2.45-.31-4.33-1.1-7.55-5.03-7.55-9.67V11.48c0-4.64,3.22-8.57,7.55-9.67.78-.2,1.6-.31,2.45-.31h36c1.5,0,2.92.33,4.2.93,3.42,1.59,5.8,5.06,5.8,9.05Z"/>
      <path class="cls-1" d="m418.1,11.48v778.15c0,.34-.02.68-.05,1.02-.52,5.01-4.79,8.96-9.95,8.96h-36c-1.67,0-3.26-.42-4.65-1.15-1.82-.97-3.31-2.46-4.25-4.29h0c-.62-1.2-1-2.52-1.08-3.93-.01,0,0,0,0,0-.01-.2-.02-.4-.02-.6V11.48c0-3.82,2.18-7.15,5.35-8.83,1.39-.73,2.98-1.15,4.65-1.15h36c5.16,0,9.43,3.95,9.95,8.96.03.34.05.68.05,1.02Z"/>
      <path class="cls-1" d="m473.9,11.48v778.15c0,1.25-.23,2.43-.65,3.53-1.44,3.76-5.1,6.44-9.35,6.44h-35.9c-5.16,0-9.43-3.95-9.95-8.96-.03-.34-.05-.68-.05-1.02V11.48c0-.34.02-.68.05-1.02.52-5.01,4.79-8.96,9.95-8.96h35.9c5.5,0,10,4.49,10,9.98Z"/>
      <path class="cls-1" d="m234.2,11.48v778.15c0,5.42-4.39,9.87-9.8,9.98h-36.2c-2.23,0-4.29-.73-5.95-1.98-2.45-1.83-4.05-4.74-4.05-8V11.48c0-3.26,1.6-6.18,4.05-8,1.66-1.25,3.72-1.98,5.95-1.98h36.2c5.41.11,9.8,4.56,9.8,9.98Z"/>
      <path class="cls-1" d="m372.8,11.48v778.15c0,3.82-2.18,7.15-5.35,8.83-1.39.73-2.98,1.15-4.65,1.15h-36c-2.05,0-3.96-.62-5.55-1.69-2.68-1.8-4.45-4.85-4.45-8.29V11.48c0-3.44,1.77-6.49,4.45-8.29,1.59-1.07,3.5-1.69,5.55-1.69h36c1.67,0,3.26.42,4.65,1.15,3.17,1.68,5.35,5.01,5.35,8.83Z"/>
      <path class="cls-1" d="m325.7,11.48v778.15c0,3.44-1.77,6.49-4.45,8.29-1.59,1.07-3.5,1.69-5.55,1.69h-36c-4.53,0-8.39-3.05-9.6-7.19-.26-.89-.4-1.82-.4-2.78V11.48c0-.97.14-1.9.4-2.78,1.21-4.14,5.07-7.19,9.6-7.19h36c2.05,0,3.96.62,5.55,1.69,2.68,1.8,4.45,4.85,4.45,8.29Z"/>
      <path class="cls-1" d="m270.5,11.48v778.15c0,.97-.14,1.9-.4,2.78-1.21,4.14-5.07,7.19-9.6,7.19h-36.1c-5.41-.11-9.8-4.56-9.8-9.98V11.48c0-5.42,4.39-9.87,9.8-9.98h36.1c4.53,0,8.39,3.05,9.6,7.19.26.89.4,1.82.4,2.78Z"/>
      <path class="cls-1" d="m101,11.48v778.15c0,4.64-3.22,8.57-7.55,9.67-.78.2-1.6.31-2.45.31h-36c-1.33,0-2.59-.26-3.75-.74-3.66-1.49-6.25-5.08-6.25-9.24V11.48c0-4.16,2.59-7.75,6.25-9.24,1.16-.48,2.42-.74,3.75-.74h36c.85,0,1.67.11,2.45.31,4.33,1.1,7.55,5.03,7.55,9.67Z"/>
      <path class="cls-1" d="m57.5,11.48v778.15c0,4.16-2.59,7.75-6.25,9.24-1.16.48-2.42.74-3.75.74H11.5c-5.5,0-10-4.49-10-9.98V11.48C1.5,5.99,6,1.5,11.5,1.5h36c1.33,0,2.59.26,3.75.74,3.66,1.49,6.25,5.08,6.25,9.24Z"/>
      <path class="cls-1" d="m501.5,11.48v778.15c0,5.49-4.5,9.98-10,9.98h-36c-5.5,0-10-4.49-10-9.98V11.48c0-5.49,4.5-9.98,10-9.98h36c5.5,0,10,4.49,10,9.98Z"/>
      <path class="cls-2" d="m459.6,795.31v-10.08c0-7.18,2.8-15.06,4.6-22.05,1.6-6.38,4.3-12.27,5.4-18.76.9-5.49,2.1-10.97,2.9-16.56,1.4-9.38,2.5-18.46,2.5-27.93,0-7.78-.3-15.16-1.1-22.85-1.5-13.37-.4-27.43-.4-40.8"/>
      <path class="cls-2" d="m483.3,664.53c0-4.39,2.3-8.58,2.3-13.07,0-5.99,2.3-11.87,2.3-17.86v-10.38c0-4.49-1.5-8.68-1.5-13.17,0-3.59-1.2-6.68-1.9-10.18-.8-3.79-.7-7.68-1.2-11.47-.8-5.79-2.3-12.07-2.3-17.86s-.8-11.47-.8-17.16c0-6.78-.1-14.47-1.7-21.05-1.5-6.38-1.4-13.37-2.2-19.85-.6-5.59-3-11.07-3-16.76,0-7.08-2.7-14.17-3.1-21.25-.3-7.68-3.1-15.46-3.1-23.15,0-11.57-3.1-22.85-3.1-34.42,0-14.67-.8-29.53-.8-44.39v-64.15c0-6.29,1.6-12.27,2.3-18.46,1.8-17.96,5.3-35.52,7.9-53.37,2.3-15.96,3.7-31.72,3.7-47.89,0-26.14,1.5-52.87-.8-78.81-.9-9.98-4.5-20.95-7.5-30.43-.9-2.99-2.5-7.38-2.5-10.57,0-4.69-3.1-9.48-3.1-14.57"/>
      <path class="cls-2" d="m484.9,529.94c0-3.59-1.1-7.28-1.7-10.87-1.2-7.28-1.5-14.67-2.5-22.05-2.2-16.76-1.2-33.62-3.1-50.48-1-9.58-.4-19.45-.4-29.03,0-12.07,2.8-24.04,3.1-36.11.1-6.09,1.4-12.07,1.5-18.16.1-5.19.2-10.87.8-16.06,1.3-11.27,2.3-22.15,2.3-33.72,0-10.97,1.5-22.15,1.5-33.22,0-6.09,1.5-11.87,1.5-17.86,0-5.49.1-11.97,1.1-17.36.5-2.89.3-5.89.4-8.78.1-2.99,1.3-5.79,1.5-8.78.6-7.98.5-16.16,1.7-24.14,1.5-9.08,1.4-18.26,1.4-27.53v-21.05c0-9.78-2.7-19.55-5-28.93-3.7-15.46-8-30.33-8-46.49,0-17.86-1.5-35.52-1.5-53.37"/>
      <path class="cls-2" d="m461.1,612.55c.4-7.38,1.5-14.47,1.5-21.85v-32.12c0-14.86-.8-29.53-.8-44.29,0-16.46,1.5-32.92,1.5-49.38,0-19.85-6.1-39.31-6.1-59.26,0-6.88-.7-13.87-1.7-20.65-.9-5.69-1.4-11.47-1.4-17.26,0-4.19-.4-10.08-2.3-13.77"/>
      <path class="cls-2" d="m457.3,728.07c0-18.46,3.5-37.21,3.8-55.87.2-12.67.8-25.44.8-38.21"/>
      <path class="cls-2" d="m488.7,785.44c-2.4-.3-4.3-7.98-5.2-9.98-2.5-5.29-3-12.37-4.3-18.06-2.4-10.08-2.7-19.85-2.7-30.13"/>
      <path class="cls-2" d="m483.3,747.13c2-6.58,1.9-15.36,2.3-22.25.6-10.67,1.5-21.35,2.3-32.12"/>
      <path class="cls-2" d="m459.6,228.66c-1.2-23.05-3.1-46.39-3.1-69.53,0-10.28-.3-20.45.8-30.63.6-5.99,1.5-11.87,1.5-17.96v-31.82c0-9.68-1-19.15-1.7-28.83-1-12.87-5.2-24.94-6.7-37.71"/>
      <path class="cls-2" d="m470.3,51.18c0-9.58.8-18.86.8-28.33"/>
      <path class="cls-2" d="m459.6,33.62c0-4.49,2-9.18,2.3-13.77.3-4.69,4.6-8.88,4.6-13.77"/>
      <path class="cls-2" d="m490.2,61.16c1.6-13.97,2.7-29.83-.8-43.6"/>
      <path class="cls-2" d="m455.7,328.82c0-9.88-.6-19.85.9-29.63,1.1-6.98,1.3-14.37,2.7-21.25.5-2.59.2-5.19,1.3-7.68,1-2.19-.1-4.89.8-7.18.7-2.1,1.1-5.79,1.1-7.98,0-4.79,1.5-8.78,1.5-13.57,0-10.18,4.6-20.25,4.6-30.43,0-3.39,1.5-6.58,1.5-10.08,0-5.29,1.3-10.77,1.5-16.06.6-15.76,0-31.62,0-47.29"/>
      <path class="cls-2" d="m486.4,458.02c0-9.98,2.2-20.65,3.4-30.63,1.4-10.77-1.1-21.25-1.1-31.82,0-17.56-4-35.52-5.4-53.07"/>
      <path class="cls-2" d="m495.6,373.92c0-5.09.8-10.28.8-15.46,0-8.58-.8-17.06-.8-25.54v-69.83"/>
      <path class="cls-2" d="m471.1,627.81c0-6.19,2.3-11.97,2.3-18.36,0-7.48.8-14.86.8-22.25v-15.76c0-8.58-1.6-16.36-2.3-24.84"/>
      <path class="cls-2" d="m426.6,793.02c0-3.99-1.5-8.08-1.5-12.27,0-5.39-.8-10.77-.8-16.36,0-5.89.8-11.47.8-17.36s.8-11.77.8-17.56c0-7.58,2-15.26,2.9-22.75.8-6.38-.6-12.57,2.4-18.56"/>
      <path class="cls-2" d="m432.8,799.9c0-16.36-.8-33.02-.8-49.58,0-22.15,3.8-44.39,3.8-66.74"/>
      <path class="cls-2" d="m429.7,662.23c1.4-12.67,3.8-25.34,3.8-38.21,0-8.48,1.4-17.26,2.6-25.54,2.1-14.27,1.2-29.63,1.2-44"/>
      <path class="cls-2" d="m423.6,578.13c0-21.85,2.3-43.5,2.3-65.34,0-18.06.2-36.11.8-54.17.4-12.37,1.5-25.84,3.8-37.91"/>
      <path class="cls-2" d="m432,434.37c1.1-20.55-.6-41-.8-61.65-.1-17.76,0-35.42,0-53.07"/>
      <path class="cls-2" d="m426.6,318.85c9.1-34.42,4.8-71.13,9.2-106.35"/>
      <path class="cls-2" d="m431.2,211.8c0-32.12,2.3-64.25,2.3-96.37"/>
      <path class="cls-2" d="m438.9,162.12c.1-1,1.3-1,1.7-2.29.8-2.79.8-5.79,1.2-8.78,1.3-10.28.7-22.25-.4-32.52-.8-7.38-1-14.96-1.9-22.35-1-8.48-.8-17.56-2.9-25.84"/>
      <path class="cls-2" d="m425.9,239.34c-1.7-.6-.7-7.48-.8-8.98-.1-7.58-.8-15.06-.8-22.65,0-11.17-1.2-23.15.2-34.22,1.1-8.88.9-18.26,2.5-27.04,1.3-7.18,1.9-14.37,1.9-21.75"/>
      <path class="cls-2" d="m425.9,108.55c6.2-32.32,10-65.05,10-97.87"/>
      <path class="cls-2" d="m425.1,62.65c0-16.06,3.1-32.12,3.1-48.19"/>
      <path class="cls-2" d="m437.4,63.45c0-4.99,1.2-9.98,1.6-14.96.6-7.28.8-15.36,2.3-22.55"/>
      <path class="cls-2" d="m437.4,326.53c0-2.29.2-5.29,1.1-7.28,1.8-3.89.4-10.77.4-14.86,0-16.86-.8-33.62-.8-50.48"/>
      <path class="cls-2" d="m426.6,399.16c0-8.98-1.5-17.76-1.5-26.84v-38.21"/>
      <path class="cls-2" d="m441.2,373.92c0-13.87-2.3-27.43-2.3-41.3"/>
      <path class="cls-2" d="m435.1,531.44c-2.3-5.79-1.1-15.26-.7-21.45.5-7.88,3.6-16.36,5.3-24.04,2.4-10.57,1.5-21.65,1.5-32.42"/>
      <path class="cls-2" d="m434.3,475.67c-2.3-3.09-.8-11.17-.8-14.86,0-4.39.3-9.58,1.9-13.77,2.8-7.18,3.8-14.76,4.8-22.35.7-5.39,0-11.27,2.5-16.26"/>
      <path class="cls-2" d="m427.4,591.9c0-15.86,4.6-31.53,4.6-47.39"/>
      <path class="cls-2" d="m425.9,678.29c0-6.68-3.1-12.47-3.1-18.95,0-4.59-.8-9.28-.8-13.97v-31.33"/>
      <path class="cls-2" d="m435.1,679.89v-27.53c0-7.18,2.3-14.07,2.3-21.45"/>
      <path class="cls-2" d="m377.6,795.31c1.7-4.99,5.7-8.88,7.7-13.97,3.6-9.18,4.2-19.85,4.6-29.53.5-11.57,3.1-22.85,3.1-34.52"/>
      <path class="cls-2" d="m392.9,800.7c0-12.67,1.7-24.64,3.1-37.31,3.8-35.22,4.4-70.33,3.1-105.75"/>
      <path class="cls-2" d="m402.9,789.23c1.9-5.09,2.2-11.37,2.7-16.76,1.1-11.37,1.9-22.85,1.9-34.22,0-34.52-.5-69.14-4.6-103.45"/>
      <path class="cls-2" d="m380.6,725.78c.3-15.16,2.4-30.13,2.3-45.39,0-10.67-.8-21.35-.6-32.12.2-14.96,2.4-29.53,5.8-44.2,4-16.86,10-33.12,14.7-49.68"/>
      <path class="cls-2" d="m391.4,678.29c0-10.38,2.2-21.15,2.9-31.53,1.4-20.85,5.1-43.2,10.9-63.35"/>
      <path class="cls-2" d="m406.7,621.73c.7-10.87,3.7-21.65,4.6-32.62,2.9-34.82-4.6-69.44-4.6-104.35"/>
      <path class="cls-2" d="m382.9,596.49c.1-8.08,1.4-16.16,1.7-24.34.7-17.16.4-34.22.6-51.28.5-34.22,5.3-68.34,5.3-102.56"/>
      <path class="cls-2" d="m392.9,561.27c11.2-37.31,13.4-77.62,15.3-116.22"/>
      <path class="cls-2" d="m395.2,512.39c1.1-6.98,4.2-13.67,6.1-20.35,2.7-9.48,4-19.25,4.6-29.03,1.6-26.34-.6-52.08-2.3-78.31"/>
      <path class="cls-2" d="m386.8,485.55c2.2-2.59,3.5-7.08,4.6-10.28,2.5-7.48,4.6-15.46,6.5-23.05,10.7-43.7,14.9-90.49,6.5-134.88"/>
      <path class="cls-2" d="m389.8,419.81c2.7-13.07,3.8-25.44,3.8-38.91s.3-27.93,1.3-41.7c1.3-17.56,5.3-35.12,7.9-52.48"/>
      <path class="cls-2" d="m386.8,414.42c0-13.07-.8-26.04-.8-39.11,0-32.82,9.1-64.35,11.5-96.97"/>
      <path class="cls-2" d="m382.2,452.73c-.5-2.99-2.1-5.89-2.7-8.88-1.2-6.29-1.7-12.57-2.1-18.95-1.5-23.94,1.3-46.99,4-70.83"/>
      <path class="cls-2" d="m382.2,472.58v58.16"/>
      <path class="cls-2" d="m402.9,352.57c2.7-20.55,3.4-41.3,3.8-62.05.7-35.72,4.6-71.23,4.6-106.95"/>
      <path class="cls-2" d="m391.4,302.78c0-42.6,1.5-85.1,1.5-127.7"/>
      <path class="cls-2" d="m381.4,317.35c0-12.17,1-24.04,1.7-36.11,1.8-30.53,4.5-61.25,7.5-91.58"/>
      <path class="cls-2" d="m400.6,263.78c0-5.59,1-10.97,1.9-16.46,1.9-11.77,2.8-24.04,3.3-36.01.9-21.95,2.5-44.1,2.5-66.04"/>
      <path class="cls-2" d="m398.3,230.16c.1-8.48,1.2-16.86,1.5-25.24.6-15.66,0-31.53,0-47.19,0-20.25.8-40.4,1.7-60.66.5-10.77,1.7-22.35-.9-32.92"/>
      <path class="cls-2" d="m379.9,224.77c.2-19.55,3.1-38.61,4.8-57.96,1.6-18.95,3.3-37.91,5.2-56.77"/>
      <path class="cls-2" d="m390.6,174.29c0-11.47,1.4-22.75,2.7-34.12,2.4-20.75,3.9-41.5,5.8-62.25"/>
      <path class="cls-2" d="m379.9,129.99c0-11.77,2.1-21.65,4.8-33.02,4.5-19.25,5.6-39.01,3.7-58.76"/>
      <path class="cls-2" d="m386,109.34c3-12.67,6.8-25.24,9-38.11,2.5-14.37,2.1-29.23,2.5-43.8"/>
      <path class="cls-2" d="m403.6,96.27c0-8.88,1.9-17.86,2.5-26.74.9-14.86,2.1-29.53,2.1-44.39"/>
      <path class="cls-2" d="m402.1,65.75c0-12.57.8-24.94.8-37.51"/>
      <path class="cls-2" d="m379.1,88.69c0-7.88-.2-15.86.4-23.74.5-6.68,1.3-13.37,1.7-20.05.4-6.38-.1-12.67.9-18.95"/>
      <path class="cls-2" d="m384.5,71.83c4.1-18.76,5.3-37.61,7.7-56.57"/>
      <path class="cls-2" d="m405.2,126.9c4.1-.5,3.9-17.16,4-19.75.8-14.07.6-28.13.6-42.1"/>
      <path class="cls-2" d="m397.5,38.91c0-10.48,1.5-20.85,1.5-31.33"/>
      <path class="cls-2" d="m383.7,41.21c0-9.68-.8-19.95-.8-29.83"/>
      <path class="cls-2" d="m401.3,40.51c0-2.89,1.7-4.89,2.3-7.68.6-2.89,2.2-5.49,2.9-8.28,1.2-4.89,1.9-9.78,3.2-14.67"/>
      <path class="cls-2" d="m330.8,796.91c0-13.37,4.2-26.74,6.7-39.81,3.9-20.75,6.5-41.7,8.6-62.65"/>
      <path class="cls-2" d="m336.9,793.82c2-.3,5.1-7.18,5.8-8.68,8.1-16.76,13.3-35.32,15.6-53.77,2.6-20.75,2.5-41.9,2.4-62.75-.1-16.86-3.1-32.72-6.1-49.08"/>
      <path class="cls-2" d="m351.5,796.11c0-46.19.1-92.28-1.5-138.47"/>
      <path class="cls-2" d="m363.8,796.11c-3.3-10.38-4.9-21.15-5.8-32.02-2.9-32.32-8.7-64.75-8.7-97.27"/>
      <path class="cls-2" d="m341.5,773.97c.2-4.19,2.3-8.68,3.4-12.67,3.9-13.67,5.6-26.64,6.5-40.7,1.2-18.95,0-37.41-.8-56.27-.2-6.29-.9-12.47-1.4-18.76-.2-2.79.3-5.99-.9-8.38"/>
      <path class="cls-2" d="m330,753.31c0-13.87.4-27.43,1.9-41.3,3.8-35.52,6.6-70.63,6.6-106.35"/>
      <path class="cls-2" d="m339.2,685.97c.4-7.08,2.4-14.47,3.8-21.55,2.5-12.77,4.6-25.44,5.8-38.31,2.4-25.74,2.7-51.98,2.7-77.82"/>
      <path class="cls-2" d="m332.3,608.76c9.6-29.83,8.4-62.35,8.4-93.28"/>
      <path class="cls-2" d="m340.8,602.57c3.2-24.24,6.7-48.39,9.2-72.83,2.9-28.73,5.2-57.76,9.2-86.3"/>
      <path class="cls-2" d="m359.2,607.16c0-12.17.5-24.54-.4-36.71-.9-12.07-1.2-23.74,0-35.81,1.1-11.07,3.3-21.95,4.3-33.02"/>
      <path class="cls-2" d="m336.2,507.8c.2-4.19,2.5-8.68,3.5-12.77,2.1-8.48,4.6-16.76,6.3-25.24,3.4-16.96,4.8-34.92,4.8-52.18"/>
      <path class="cls-2" d="m336.2,477.17c2.7-12.57,2.5-25.74,3.4-38.61,1.1-14.86,2.7-29.83,2.7-44.79"/>
      <path class="cls-2" d="m331.6,430.48c.2-2.39,1.5-4.89,1.9-7.28,1.2-6.68,2.8-13.17,3.9-19.95,3.8-23.94,2.8-46.89-.4-70.73"/>
      <path class="cls-2" d="m345.4,420.6c0-10.48,1.4-20.05,2.5-30.43,2-18.16,4.7-36.21,6-54.47"/>
      <path class="cls-2" d="m353.8,427.49c-1.2-30.63-5.9-62.45,8.4-90.98"/>
      <path class="cls-2" d="m362.2,428.19c-4.8-15.06-6.9-31.62-6.9-47.39"/>
      <path class="cls-2" d="m363.8,350.27v45.09"/>
      <path class="cls-2" d="m333.9,325.73c1-1.8,1.5-2.89,1.5-4.89,0-6.98,1.3-13.87,2-20.85,1.8-20.35,3.5-41.3,7.2-61.45"/>
      <path class="cls-2" d="m343.8,316.55c2.2-9.08,4.4-17.46,5.2-26.74,1.5-16.96,5.5-33.32,5.5-50.48"/>
      <path class="cls-2" d="m353,322.74c0-7.48,2-15.16,3.4-22.55,3.1-16.76,2.7-33.92,2.7-50.88"/>
      <path class="cls-2" d="m348.4,237.04c0-13.27-2.4-26.34-3.1-39.61-.8-16.06-1.1-31.03,2.3-46.79"/>
      <path class="cls-2" d="m331.6,223.27c.1-4.89,1.4-9.48,1.5-14.37.2-8.88.7-17.76.8-26.64.2-12.77,1.3-25.24,2.6-37.91,1.3-12.37,2-24.44,5-36.51"/>
      <path class="cls-2" d="m359.9,213.3c-.5.1-2.1,1.4-2.1,1.4-1.2-3.49-.2-8.98-.2-12.57,0-8.78.1-17.66,0-26.44-.2-17.46-1.4-34.92-1.5-52.48-.2-28.83-.7-57.76-.7-86.59"/>
      <path class="cls-2" d="m335.4,101.66c0-29.43-1.8-58.56-3.8-87.99"/>
      <path class="cls-2" d="m340.8,99.37c2.2-14.57,2.7-30.03,3.7-44.79.6-9.18.4-18.46,1.1-27.73.5-6.29,2-12.37,2.9-18.56"/>
      <path class="cls-2" d="m348.4,108.55c0-11.47,1.5-22.85,2.1-34.32.9-16.66,1-34.72,6.3-50.58"/>
      <path class="cls-2" d="m361.5,105.45c2.7-8.58,3.8-19.25,3.8-28.23,0-6.19,1.5-11.87,1.5-18.06,0-16.86.2-34.32-3.1-50.88"/>
      <path class="cls-2" d="m330.8,247.72c.8-7.28,4.6-14.47,4.6-21.75s2.3-13.07,2.3-20.25"/>
      <path class="cls-2" d="m360.7,246.22c0-5.79,2.1-11.67,2.3-17.46.2-4.09.8-7.88.8-12.07,0-3.79,1.5-8.08,1.5-12.17v-73.82"/>
      <path class="cls-2" d="m351.5,179.68v-36.91c0-7.38-1.5-13.97-1.5-21.25"/>
      <path class="cls-2" d="m337.7,175.09c0-9.58,1.7-18.66,2.3-28.23.5-8.38,1-16.36,2.3-24.54"/>
      <path class="cls-2" d="m345.4,321.94v28.33"/>
      <path class="cls-2" d="m359.9,334.91c.9-8.08,2.3-15.76,2.3-24.04v-28.73"/>
      <path class="cls-2" d="m332.3,280.64c0-5.49,1.5-11.07,1.5-16.66,0-7.08,2.3-13.77,2.3-20.85"/>
      <path class="cls-2" d="m331.6,383.09c1.4-17.06,4.6-33.22,4.6-50.48"/>
      <path class="cls-2" d="m363.8,491.74c0-11.07,0-21.95-1.5-32.92"/>
      <path class="cls-2" d="m465.7,129.2c.2-1.4,1.5-2.59,1.5-4.29,0-3.29.8-6.38.8-9.68v-25.04"/>
      <path class="cls-2" d="m490.2,97.87c2.2-2.49.8-10.18.8-13.37v-18.06"/>
      <path class="cls-2" d="m471.8,75.62c0-5.19-.1-10.18.8-15.26"/>
      <path class="cls-2" d="m481.8,229.36v-46.99c0-5.49,1.4-10.57,1.5-16.06.3-8.98,2.2-18.06,3.1-27.14"/>
      <path class="cls-2" d="m470.3,331.92c0-9.18.8-17.46,3.1-26.44,4.6-18.86,9.1-37.51,10.7-56.86"/>
      <path class="cls-2" d="m470.3,390.78c0-19.05-.1-38.51,2.3-57.36"/>
      <path class="cls-2" d="m493.3,460.31v60.46"/>
      <path class="cls-2" d="m489.5,585.81c1.6-12.47-.1-25.04,1.5-37.51"/>
      <path class="cls-2" d="m453.5,533.74v-17.86c0-10.08-3.1-19.95-3.1-30.13v-49.88"/>
      <path class="cls-2" d="m454.2,607.16c0-22.55-.3-44.79-2.3-67.34"/>
      <path class="cls-2" d="m486.4,689.77c.4-10.18,4.4-18.26,6.5-27.93,2.4-11.37,2.6-22.95,5.8-34.02"/>
      <path class="cls-2" d="m454.2,664.53c.3-13.97,2.6-29.13,5.4-42.8"/>
      <path class="cls-2" d="m477.2,654.65c0-11.37-2.1-25.44.8-36.71"/>
      <path class="cls-2" d="m453.5,756.31c0-2.79,1.2-4.39,1.5-6.88.4-3.39.5-7.28,2.4-10.28,4.3-6.88,5.8-15.66,9.9-22.55"/>
      <path class="cls-2" d="m314.7,789.23c-.6-2.89-4.5-7.48-6.1-10.08-.9-1.5-3-6.38-3.1-8.08-.2-4.79-3.1-9.98-3.1-14.86,0-5.69-.6-11.17-.8-16.86-.3-7.28-.8-14.96-1.5-22.35-1-10.38,0-21.35,0-31.82,0-5.59-1.2-13.27.4-18.66,1.8-5.79,5-10.77,6.8-16.46,2.9-8.98,8.4-16.96,10.4-26.34,1.5-6.88,3.8-14.67,3.8-21.75"/>
      <path class="cls-2" d="m317,776.26c0,5.29-2.2-10.48-2.3-15.76-.2-6.38,1-13.37-.2-19.65-1-5.29-1.2-10.38-1.4-15.76-.2-4.59-2.3-9.28-2.3-13.97,0-5.39-.8-10.57-.8-16.06v-9.18c0-3.39,1.4-6.48,1.5-9.88.1-2.49,1.5-4.89,1.5-7.28s.2-4.29.9-6.58c1-2.89.8-5.99,1.8-8.98,1.2-3.39,4.1-5.69,4.9-9.18"/>
      <path class="cls-2" d="m281,790.03c.3-3.49,1.3-6.98,2.3-10.38.7-2.39.9-4.99,1.4-7.48.5-2.99,1.7-6.09,1.7-9.08,0-12.97,1.5-25.94,1.5-39.01"/>
      <path class="cls-2" d="m279.4,753.31c0-6.48-.3-12.87.6-19.25,1.5-10.67,4.1-20.95,4.9-31.82,1.7-21.05,4.5-41.9,6.7-62.85"/>
      <path class="cls-2" d="m296.3,793.02v-5.19c0-2.69-1.2-4.59-1.5-7.08-.5-4.99,0-10.28,0-15.26"/>
      <path class="cls-2" d="m294,728.77v27.53"/>
      <path class="cls-2" d="m292.5,670.71c0-11.87,2.3-23.94,4.8-35.62,2.2-10.38,5.9-20.35,8.1-30.73,2.5-12.27,5-24.54,7.1-36.91"/>
      <path class="cls-2" d="m305.5,625.52c0-7.78,5-13.97,8-20.65,4-8.78,5.7-19.45,5.7-29.03"/>
      <path class="cls-2" d="m287.1,621.73c9.7-12.87,16.3-27.63,16.9-44,.4-10.38.3-20.95.9-31.33.4-7.98,0-16.26,1.4-24.14"/>
      <path class="cls-2" d="m278.7,614.84c0-4.29,1.6-8.48,2.7-12.57,2.4-9.38,4-19.25,5.5-28.73,5.1-31.72,13.4-63.35,14.8-95.47"/>
      <path class="cls-2" d="m278.7,663.03c0-14.07,0-27.43,2.3-41.3"/>
      <path class="cls-2" d="m278.7,705.13c0-4.59-2-9.08-2.3-13.77-.4-4.69-.7-9.08-.7-13.77"/>
      <path class="cls-2" d="m291.7,597.29c0-11.47,1-22.85,4.6-33.62"/>
      <path class="cls-2" d="m314.7,556.68c0-5.09,1.1-9.68,1.7-14.67.9-8.08.6-16.16.6-24.34"/>
      <path class="cls-2" d="m312.4,516.98c0-18.46,7.7-35.62,7.7-53.87,0-5.89.2-11.57-1.1-17.26-1.7-7.08-3.1-14.96-4.1-22.15-3.3-23.05-4-46.49-7.1-69.63"/>
      <path class="cls-2" d="m303.2,471.78c-.5-17.66-8.8-33.72-12.3-50.78-4.4-21.35-4.3-43.1-6.9-64.65"/>
      <path class="cls-2" d="m306.3,449.64c-1.9-14.37-4.9-28.63-4.6-43.2.4-14.37,2.7-28.63,3-43,.3-17.56.2-34.82-2.3-52.18"/>
      <path class="cls-2" d="m294,396.86c0-39.51-3.1-79.01-.8-118.52"/>
      <path class="cls-2" d="m277.9,505.5c.5-10.57,4-20.95,4.8-31.62.7-9.78,2.1-19.75,2.1-29.53"/>
      <path class="cls-2" d="m284.8,503.21c2.4-.5,6.1-7.28,6.9-9.38,3.5-8.98,3.1-19.45,3.1-28.93"/>
      <path class="cls-2" d="m281,562.07c.3-5.29,1.1-10.28.6-15.66-.7-7.18-2.4-14.76-.6-21.85"/>
      <path class="cls-2" d="m289.4,536.83c-.2-4.19-2-8.08-2.3-12.17-.5-6.88-.1-13.97,1.5-20.65"/>
      <path class="cls-2" d="m275.6,445.05c0-6.09.1-12.77,1.1-18.76,1.6-9.08,0-18.66,1.2-27.83"/>
      <path class="cls-2" d="m286.3,447.34c0-12.27-.8-24.44-.8-36.71"/>
      <path class="cls-2" d="m279.4,348.68c0-2.19,1-3.99,1.4-6.09.9-4.89,1.4-9.78,1.9-14.67,1.5-16.16.7-32.62-.2-48.78"/>
      <path class="cls-2" d="m299.4,308.97c-3.8-12.67-.3-33.52,12.3-39.81"/>
      <path class="cls-2" d="m310.1,328.02c-.6-17.26-3.2-36.31,3.8-52.77"/>
      <path class="cls-2" d="m314.7,369.33c0-13.07-2.4-28.83,2.3-41.3"/>
      <path class="cls-2" d="m320.1,406.04c0-8.28-2.3-16.16-2.3-24.44"/>
      <path class="cls-2" d="m281.7,272.26c.8-4.29,4.5-9.38,6.1-13.57,4.9-13.17,6.9-28.23,6.9-42.2"/>
      <path class="cls-2" d="m295.5,265.37c1.4-.2,3.6-3.59,4.2-4.59,4.6-8.28,5.3-17.56,6.2-26.74,2.1-21.35,1.9-42.8,1.9-64.25"/>
      <path class="cls-2" d="m311.6,262.28c0-39.71,11.8-79.81,3.8-119.32"/>
      <path class="cls-2" d="m283.3,203.42c11.8-24.94,16.1-52.58,16.1-79.91,0-17.06-.8-34.32-.8-51.28,0-7.88,1.8-18.66-.6-26.24-.5-1.8.1-3.69-.3-5.49-1.3-5.69-2.4-12.17-5.5-17.16-1.6-2.49-3.8-5.99-4.3-8.88"/>
      <path class="cls-2" d="m306.3,143.76c.4-4.49,2.3-8.68,2.9-13.17,1.1-8.38.9-17.76.9-26.24,0-11.57,1.5-22.95,1.5-34.42,0-14.76.1-29.23-4.6-43.2"/>
      <path class="cls-2" d="m278.7,164.41c0-6.48-1-12.47-1.5-18.86-.5-5.09-2-9.88-2.5-14.96-.7-6.78-.6-13.67-.6-20.45,0-22.45,2.3-44.79,2.3-67.34"/>
      <path class="cls-2" d="m284,151.34c0-16.86-2.7-33.52-2.3-50.48.3-10.97,3.6-20.75,6.5-31.13,1.5-5.39,2.7-11.07,4.9-16.26"/>
      <path class="cls-2" d="m278.7,246.22c0-10.28-3.7-20.25-3.8-30.63-.2-11.67.8-22.85,2.3-34.42"/>
      <path class="cls-2" d="m284,181.97c.6-13.27,4-25.64,10-37.51"/>
      <path class="cls-2" d="m287.9,233.25c0-8.88-3.1-17.76-3.1-26.74"/>
      <path class="cls-2" d="m299.4,206.41c.4-5.79,1.8-10.38,3.4-15.76,1.1-3.49,2.4-6.78,3.6-10.18,1-2.79,1.1-5.99,2.9-8.38"/>
      <path class="cls-2" d="m292.5,204.92c0-11.57.9-23.74,2.3-35.22"/>
      <path class="cls-2" d="m310.1,144.46v24.44"/>
      <path class="cls-2" d="m300.1,182.77c0-8.18.4-15.66,2.3-23.74"/>
      <path class="cls-2" d="m314.7,134.58c0-16.26,3.3-30.43,8.4-45.89"/>
      <path class="cls-2" d="m317,84.1c.3-7.78,1.4-15.96,2.7-23.64,2.6-16.46,3.7-33.22,5-49.78"/>
      <path class="cls-2" d="m315.5,48.89c1.6-3.59.8-8.68.8-12.57v-18.76"/>
      <path class="cls-2" d="m310.9,25.94c-.2-3.49-3.4-6.09-6-8.08-5.3-4.19-10.6-8.08-16.3-11.77"/>
      <path class="cls-2" d="m300.9,33.62c-.9-5.59-1.4-11.27-2.3-16.86"/>
      <path class="cls-2" d="m283.3,45.1c0-9.68-.8-19.35-.8-29.03"/>
      <path class="cls-2" d="m287.9,29.73v19.15"/>
      <path class="cls-2" d="m223.5,790.73c1.3-1.8,1.5-6.19,1.5-8.38,0-4.99.8-9.88.8-14.86,0-10.57,1-20.25,3.1-30.73,2-9.98,6.2-18.95,9.2-28.63"/>
      <path class="cls-2" d="m230.4,790.03c4.5-.6,6.8-22.25,7.2-25.34,3.1-21.25,3.5-43.5,3.5-64.95"/>
      <path class="cls-2" d="m242.6,790.03c.4-19.95,3.7-40.1,4.9-59.96,1.6-24.44,1.2-47.99-1.9-72.33"/>
      <path class="cls-2" d="m248.8,786.14c0-24.14,6.4-48.09,8-72.23,1.6-23.94.5-47.69.5-71.53"/>
      <path class="cls-2" d="m226.5,707.42c0-10.48-.8-20.95-.8-31.33,0-19.35.8-38.71.8-58.16"/>
      <path class="cls-2" d="m259.5,790.73c0-8.98,2.3-17.96,2.3-26.94,0-7.98-.8-15.56-.8-23.54"/>
      <path class="cls-2" d="m471.1,763.19c0,6.48-3.5,32.12,6.1,32.12"/>
      <path class="cls-2" d="m235.7,681.39c0-11.37.3-23.44,3.8-34.42,5.5-17.36,10.7-34.22,14.6-51.98"/>
      <path class="cls-2" d="m235.7,620.93c1.2-14.07,3-28.13,3.1-42.3,0-12.17-.9-24.14-1.4-36.31-1.4-34.02-5.5-67.84-5.5-101.86"/>
      <path class="cls-2" d="m248.8,581.22c.4-6.38,3.2-12.47,5-18.56,4.2-14.07,7.1-28.53,8.5-43.2,2.5-25.74,2-50.08-4.3-75.22"/>
      <path class="cls-2" d="m247.2,549.1c-4.9,0-3.7-9.48-4.4-12.97-2.4-11.47,1.2-24.14,1.4-35.62.2-10.08.8-19.95.8-30.03s-1.5-20.85-1.5-31.33c0-16.66.6-33.32,2.3-49.88"/>
      <path class="cls-2" d="m224.2,594.19c0-28.03,7.1-55.97,5-84.1-2.3-30.93-7-61.75-11.1-92.58"/>
      <path class="cls-2" d="m254.9,640.88c0-8.78,2.5-17.66,3.2-26.54,1.1-14.17,5.3-26.34,2.2-40.7"/>
      <path class="cls-2" d="m241.1,613.35c0-8.88,3.1-15.96,3.1-24.84,0-12.27.2-24.34-1.5-36.31"/>
      <path class="cls-2" d="m248.8,588.11c8.2-9.08,10.1-18.86,13.8-29.83"/>
      <path class="cls-2" d="m228.8,617.94c0-9.98.8-19.95.8-29.83"/>
      <path class="cls-2" d="m234.2,704.33c0-9.28-3.9-16.46-6.1-25.24"/>
      <path class="cls-2" d="m219.6,737.25c0-8.38-1.5-16.76-1.5-25.24"/>
      <path class="cls-2" d="m223.5,728.77c2.6-1.3,3.1-7.58,3.8-10.08,1.1-3.89,2-7.68,3.8-11.27"/>
      <path class="cls-2" d="m254.1,533.04c0-8.58.8-16.66,2-25.14,2.6-17.96,2.6-36.21,2.6-54.37"/>
      <path class="cls-2" d="m248.8,497.82c.2-3.59,1.8-6.68,3.1-10.08,2.2-5.99,3.6-13.07,4.6-19.35,2.9-18.86,5.4-37.21,5.4-56.27"/>
      <path class="cls-2" d="m251.1,455.02c0-34.42,5.8-68.84,7.7-103.25"/>
      <path class="cls-2" d="m232.7,437.36c0-18.66,0-37.11,1.5-55.67,2.1-24.84,5-49.48,6.9-74.32"/>
      <path class="cls-2" d="m223.5,409.83c-.3-17.06-3.6-34.22-1.8-51.18,2.5-24.14,14.1-46.49,22.5-68.84"/>
      <path class="cls-2" d="m244.2,387.68c0-10.48.8-20.85.8-31.23,0-20.85,0-39.41,7.7-58.96"/>
      <path class="cls-2" d="m254.1,357.85v-20.75c0-12.17,3.3-22.75,6.9-34.32"/>
      <path class="cls-2" d="m225,314.26c.8-4.79,3.4-9.58,4.6-14.37,2.3-9.58,4.9-19.05,7.1-28.63,5.6-25.24,9-49.68,9-75.52"/>
      <path class="cls-2" d="m217.3,302.78c2.4-3.79,2.9-9.28,3.7-13.57,2-11.17,3.6-22.45,5.5-33.62,2.4-14.17,4.6-29.33,4.6-43.8"/>
      <path class="cls-2" d="m247.2,285.23c-1.1-12.17-3.1-23.74-3.1-35.91,0-8.78-.4-14.47,6.9-19.85"/>
      <path class="cls-2" d="m252.6,295.2c0-16.06-3-32.02,5.4-46.69"/>
      <path class="cls-2" d="m258.7,304.38c0-11.47-1.5-22.95-1.5-34.42"/>
      <path class="cls-2" d="m219.6,341.09c0-11.27-1.5-22.35-1.5-33.62"/>
      <path class="cls-2" d="m221.9,232.45c.4-12.77,4.7-24.84,6.7-37.41,2.9-17.86,2-36.41.9-54.37"/>
      <path class="cls-2" d="m235.7,217.19c0-22.45,4.4-45.99,11.5-67.34"/>
      <path class="cls-2" d="m252.6,222.48c0-15.16-1.4-31.13,3.1-45.89"/>
      <path class="cls-2" d="m263.3,259.19c-.4-17.56-4.5-34.32-3.1-51.98"/>
      <path class="cls-2" d="m257.2,187.36c0-9.58.4-18.95-2.1-28.23-2.7-10.18-6.3-20.05-9.3-30.13-2-6.48-3.1-13.27-5.5-19.65"/>
      <path class="cls-2" d="m262.6,169c2.1-27.24-3.1-53.87-3.1-81.11"/>
      <path class="cls-2" d="m254.9,146.76c.6-13.07,1.9-25.34.8-38.51-1.4-16.16-2.2-32.42-3.1-48.68"/>
      <path class="cls-2" d="m248,118.52c-.3-15.76-1-31.62-1.5-47.39"/>
      <path class="cls-2" d="m231.1,141.47c0-6.68.1-13.47-.1-20.15-.3-10.57-2.4-20.95-3.3-31.43-1-11.57-.5-23.24-.5-34.82"/>
      <path class="cls-2" d="m242.6,141.47c0-21.15.8-42.3.8-63.45"/>
      <path class="cls-2" d="m218.9,162.12c0-21.95,2.6-43.6,7.7-65.05"/>
      <path class="cls-2" d="m234.2,77.92c.8-6.88,2.4-15.26,4.9-21.75,5-12.47,11.9-26.44,11.9-40.2"/>
      <path class="cls-2" d="m254.1,55.77c0-7.98.7-15.76,1.6-23.74.7-6.48,3-12.57,3-19.15"/>
      <path class="cls-2" d="m260.3,77.92v-16.16c0-5.79-1-14.86,1.4-20.55,2.1-5.09,1.7-13.67,1.7-19.15"/>
      <path class="cls-2" d="m231.9,58.86c0-14.57,1.5-29.13,1.5-43.6"/>
      <path class="cls-2" d="m225,40.51c-2.3.3-3.8-32.22-3.8-35.91"/>
      <path class="cls-2" d="m233.4,36.62c11.6,0,11.5-24.54,11.5-32.92"/>
      <path class="cls-2" d="m224.2,32.03c0-8.48.2-14.57,5.4-21.45"/>
      <path class="cls-2" d="m189.7,795.31v-28.33c0-4.19.6-8.08.8-12.27.1-2.79,1.5-5.29,1.5-8.08,0-3.89-.3-10.08,1.2-13.77,1-2.49.3-5.79.4-8.48.1-2.89,1.2-5.89,1.5-8.78.8-6.78.8-13.87.8-20.65v-47.99c0-23.05-1.1-46.49.7-69.44,1.4-17.06,2.3-34.42,2.3-51.58v-35.32c0-7.78.3-15.66,0-23.44-.3-6.29,0-13.27-1.1-19.55-1.3-7.28-1-15.86-1.1-23.24-.2-10.08-3.1-19.85-3.1-30.03,0-21.75-.8-43.6-.8-65.44,0-8.28-1.5-16.16-1.5-24.34,0-7.38-.8-14.67-.8-22.05v-5.99c0-3.09,2.3-4.69,2.7-7.68,1.4-10.38.8-21.35,3.6-31.62,1.9-6.98,1.8-14.27,3.3-21.45,1.1-5.39,2.7-10.87,2.7-16.46,0-13.37,1.5-27.14,1.5-40.5v-57.36c0-16.66.4-34.22-3.2-50.48-1.4-6.19-2.3-12.27-4-18.36-1.2-4.19-1-9.38-3.4-12.97"/>
      <path class="cls-2" d="m199.7,794.62c0-17.66-.8-35.22-.8-52.97,0-8.88,1.5-17.36,1.5-26.24,0-13.97.8-27.83.8-41.7,0-9.58,1.4-19.55,2.5-29.03.8-7.38,1.4-15.56,1.4-22.95v-22.65c0-4.29-.7-8.38-.8-12.57-.1-3.19-1.5-5.69-1.5-8.88,0-12.87-2-25.84-2.3-38.71-.4-16.46-.8-32.82-.8-49.38,0-17.56,1.5-35.02,1.5-52.58,0-8.18.8-16.46.8-24.64s-.8-15.56-.8-23.24c0-11.07-2.5-22.45-3.8-33.52-1.8-14.17-2.3-28.93-2.3-43.3v-30.13c0-4.79.8-9.58.8-14.17,0-4.19,1.5-7.98,1.5-12.27,0-2.99,1.5-6.29,1.5-9.48,0-3.49,1.5-6.38,1.5-9.78,0-6.68,1.5-13.37,1.5-20.05"/>
      <path class="cls-2" d="m182.8,775.46c0-29.43,3.1-58.16,3.1-87.59,0-17.96,1.1-36.11,1.5-54.07.3-14.47,1.5-28.83,1.5-43.3,0-18.36-.2-37.41,1.6-55.67,1.4-14.37.7-29.03.7-43.5,0-32.42-.8-64.85-.8-97.17,0-9.48-.7-18.26-2.3-27.53-1.6-9.38-3.6-19.85-3.8-29.43-.4-15.76-3.1-31.03-3.1-46.79,0-10.77-.8-21.45-.8-32.32,0-2-.3-4.29.2-6.29.5-2.39,2.6-4.49,2.9-6.88.5-4.39,0-8.98,0-13.37,0-7.58-.8-15.06-.8-22.55v-24.04c0-9.08-.2-18.76,1.4-27.63,1.5-8.18.1-17.06,2.1-25.14,1.9-7.58.4-17.16.4-25.04v-42.4c0-8.68-2.6-22.45,3.8-28.93"/>
      <path class="cls-2" d="m190.5,233.25c0-3.49.5-6.78.7-10.28.5-7.98.9-16.26,2-24.14,1.2-8.98.4-18.46.4-27.53V60.46"/>
      <path class="cls-2" d="m205.8,384.59c-2-6.88-.8-15.06-.8-22.15,0-8.68-1.5-17.26-1.5-25.94,0-6.78,2.3-13.27,2.3-20.05,0-6.09.8-12.07.8-18.16,0-17.96-.8-35.62-.8-53.57"/>
      <path class="cls-2" d="m149.1,793.82c0-3.79,3.4-5.29,4.9-8.38,2-3.99,2-7.78,2-12.07,0-7.98.8-15.76.8-23.84"/>
      <path class="cls-2" d="m173.6,801.5c0-8.88-3.8-17.46-3.8-26.34s-.8-18.26-.8-27.53c0-16.56-3.8-32.82-3.8-49.28,0-19.15-.9-38.71.8-57.76.9-10.57,1.2-21.15,2.2-31.72,1.1-11.07-.8-22.55.1-33.62,3.3-39.11,0-78.11,0-117.22s-6.9-81.11-6.9-122.21"/>
      <path class="cls-2" d="m150.6,748.73c0-14.17.6-29.23,2.5-43.4,1.4-10.97.6-22.35.6-33.42,0-34.82-.7-69.53,3.2-104.05,3.3-28.93,1.4-57.86,1.4-86.89,0-18.66-1.2-37.11-1.5-55.67-.1-7.88-.8-15.96-1.7-23.74-1.1-9.18-2.5-18.46-6.7-26.74"/>
      <path class="cls-2" d="m161.4,793.82c0-19.55,1.5-38.61,1.5-58.16,0-8.28-1.5-16.46-1.5-24.44,0-3.39-.2-7.68-.8-11.07-.4-2.09.2-11.57-1.1-12.67-1.3-1-1.1-10.48-1.1-12.27v-10.67c0-8.88.8-17.46.8-26.34s1.5-18.36,1.5-27.53.8-19.15.8-28.63"/>
      <path class="cls-2" d="m159.1,576.63c0-2.49,1.8-6.78,2.7-9.08,1.4-3.49,2.1-7.28,2.8-10.97,1.4-6.88,2.7-13.77,4.4-20.45"/>
      <path class="cls-2" d="m162.9,528.45c0-10.77.8-21.25.8-32.12,0-14.96,1.5-29.93,1.5-44.69s.8-29.43.8-44.39c0-10.08-1.3-20.05-1.5-30.13-.1-4.99-1.4-10.67-2.1-15.66-.9-6.29-2.5-12.57-2.5-18.95"/>
      <path class="cls-2" d="m174.4,387.68c0-8.28-.6-16.26-1.9-24.44-.9-5.59-.4-11.37-1-16.96-1-8.88-1.5-17.76-2.3-26.64-3.4-37.61-3.2-75.42-3.2-113.23"/>
      <path class="cls-2" d="m151.4,377.01c0-53.47-3.1-107.15-3.1-160.82,0-27.43,1.5-54.87,1.5-82.4,0-9.98.8-19.85.8-29.83,0-5.79.8-11.47.8-17.16,0-6.09-.2-12.07.8-18.06"/>
      <path class="cls-2" d="m154.5,314.26c0-24.34,6.4-47.99,8.8-72.23,1.3-12.77.4-25.94.4-38.71,0-10.28.8-20.55.8-30.93,0-6.68.6-13.57-.6-20.15-1-5.59-1.5-11.87-1.7-17.56-.6-16.36-3.6-33.82.8-49.88"/>
      <path class="cls-2" d="m153.7,259.19c0-12.77,1.5-25.04,1.5-37.81v-75.22c0-42.4-.8-84.6-.8-127.1"/>
      <path class="cls-2" d="m170.6,98.57c-.8-8.08-4.5-16.46-6.3-24.44-1.5-6.58-2.8-14.27-2.9-20.95-.1-7.38-2.8-14.47-3.1-21.65-.2-4.39-3.3-12.37-.8-16.26"/>
      <path class="cls-2" d="m169.8,68.04V19.06c0-4.99,2.6-9.68,3.8-14.47"/>
      <path class="cls-2" d="m170.6,196.54c0-16.26-.8-32.62-.8-48.98,0-6.29,1.5-12.17,1.5-18.36v-21.45"/>
      <path class="cls-2" d="m162.1,328.82c0-7.98-.8-15.86-.8-23.74"/>
      <path class="cls-2" d="m41,792.32c0-12.07-4.5-22.95-5.4-34.92-.7-10.08-4.6-19.85-6.1-29.73-1.6-10.87-4.5-21.55-6-32.52-2.3-18.06-7.1-36.31-7.1-54.67,0-9.08-1.5-18.36-1.5-27.63,0-8.08-.8-16.06-.8-24.14,0-10.67,3.4-19.65,6.1-29.73"/>
      <path class="cls-2" d="m9.6,790.03c0-16.56.3-32.82,2.5-49.08,1.3-9.68,3.7-18.36,3.7-28.33,0-11.17,2-22.45-.8-33.52"/>
      <path class="cls-2" d="m50.2,744.14c-2.7-2.69-4.9-6.09-5.4-9.88-.8-6.29-3-12.87-3-19.15,0-3.69-.6-7.88-1.4-11.47-.6-2.59.2-5.09-.9-7.68-1-2.39-1.4-5.99-1.5-8.58-.3-6.29-2.3-12.37-3.4-18.56-2-10.57-2.1-21.55-3.9-32.12-2.9-17.56-2.6-35.42-2.6-53.17,0-14.67,1.6-29.13,4-43.6,3.4-20.15,5.2-41.4,5.2-61.95,0-24.04,3.3-48.88-1.1-72.73-3.3-17.86-3.7-35.72-7.7-53.47-1.5-6.48-2.5-13.27-4.2-19.75-1.9-7.28-1.4-15.56-3.8-22.55-2-5.79-1.9-12.57-2.3-18.66-.6-7.08-2.3-14.17-2.3-21.45,0-18.46.6-36.51,4-54.67,2.7-14.67,4.1-29.53,7.3-44.2,5.6-25.34,4-52.48,4-78.51,0-13.17-2.4-26.04-5.5-38.71-1.7-6.58-3.8-14.07-6.7-19.85"/>
      <path class="cls-2" d="m35.6,17.56c.5,4.89,4.6,8.48,4.6,13.47s1.5,9.78,1.5,14.47c.1,10.87.8,21.85.8,32.82,0,7.88,0,15.46-1.4,23.15-1,5.59-.5,11.27-2,16.66-1.2,4.19-1.2,9.78-1.2,14.07,0,16.46-.8,33.12-.8,49.68,0,17.96-1,35.32-2.3,53.17-.7,9.18-1.5,18.36-1.5,27.63,0,8.58-.9,17.96,1.2,26.24,6.2,24.84,5,50.98,5,76.52"/>
      <path class="cls-2" d="m21.8,15.27c0,5.69.8,11.77,2.1,17.26,1.2,5.09,3.2,10.77,3.2,15.96,0,7.58,3.8,14.96,3.8,22.65"/>
      <path class="cls-2" d="m10.3,20.55c0,8.38-1.5,16.76-1.5,25.24v21.75c0,3.09,1.5,6.19,1.5,9.48s1.1,6.48,1.6,9.78c1.1,7.18,3.8,13.37,3.8,20.85,0,11.17-.8,22.55-.8,33.42,0,4.99-3.8,10.08-3.8,15.26,0,5.59-2.3,11.77-2.3,17.16"/>
      <path class="cls-2" d="m45.6,17.56c0,21.05-.8,41.8-.8,62.85,0,6.09-1.1,14.27,1.4,19.75,2.3,5.09,2.5,12.07,2.5,17.56"/>
      <path class="cls-2" d="m28,9.08c0,11.17-1.8,24.74,4.6,34.42"/>
      <path class="cls-2" d="m14.9,9.08c-.7,6.19-2,13.57.8,19.15"/>
      <path class="cls-2" d="m11.1,47.39c.6,2.89,2.3,4.89,2.3,8.08,0,5.59.8,11.07.8,16.76,0,6.58,1.6,15.26,4.2,21.45,1.5,3.59,2.5,9.28,2.7,13.17.3,4.19,2.1,8.38,2.3,12.57.2,4.29,0,8.58,0,12.87,0,3.09-1.5,4.89-1.5,7.68"/>
      <path class="cls-2" d="m23.4,149.05c0,4.29.2,8.58,0,12.87-.2,3.99-1.5,7.88-1.5,11.97,0,3.19-.8,6.19-1.5,9.18-.7,2.89-2.2,7.28-2.3,10.18-.1,3.09-1.8,6.29-3.2,8.98-1.2,2.39-3.7,5.09-4.4,7.68-.9,3.09-3.9,4.99-4.7,8.38-.6,2.89-3,4.29-3,7.28"/>
      <path class="cls-2" d="m47.1,121.51v43c0,2-.1,12.07,1.5,12.87"/>
      <path class="cls-2" d="m45.6,188.06c0,12.67.8,25.34.8,37.91,0,5.09,2.3,10.67,2.3,16.06s3.1,10.18,3.1,15.66"/>
      <path class="cls-2" d="m45.6,271.46c-2.8,3.09-2,9.38-2.9,13.47-1.1,4.79-.2,10.67-.2,15.66,0,5.79,3.4,10.67,3.8,16.26.3,3.69,2.3,6.68,3.8,9.78"/>
      <path class="cls-2" d="m39.5,237.04c0,2.1-.3,4.29-.9,6.29-.9,2.99,0,6.09-1.2,8.98-2,4.89,1.6,10.87,4.4,14.57"/>
      <path class="cls-2" d="m26.4,217.89c-3.7,6.98-3.1,15.96-3.1,23.84,0,7.08-1.9,13.37,2.3,19.75"/>
      <path class="cls-2" d="m9.6,226.37v52.38c0,5.89,1.8,15.56-.6,21.05-1.1,2.49-.9,8.38-.9,11.07,0,3.39-.8,6.29-.8,9.58"/>
      <path class="cls-2" d="m16.5,316.55c0,5.89-.8,11.87-.8,17.66,0,8.28,1,17.36-.2,25.54-.7,5.09-1.1,10.67-.4,15.76.9,6.88,3.6,12.57,5.6,19.05.8,2.59,5.4,13.07,8,13.07"/>
      <path class="cls-2" d="m9.6,347.18c6,0,5.5,42,4.4,48.19-3.5,20.75-7.5,42.4-7.5,63.45"/>
      <path class="cls-2" d="m24.1,412.92c0,8.38-1.8,14.86-3.8,22.95-2.1,8.28-3.1,15.66-3.1,24.14,0,9.68,1.3,19.15,2.3,28.63.1,1.2,4.3,15.86,6.9,10.67"/>
      <path class="cls-2" d="m5.7,470.29c10.1,22.65-3.3,98.47,1.5,74.22"/>
      <path class="cls-2" d="m21.8,510.79c0,4.09-5.1,31.33,1.5,31.33"/>
      <path class="cls-2" d="m48.7,360.15v64.25c0,5.09.9,11.07-.2,16.06-1,4.69-2,10.87-2.1,15.76-.3,10.48-3.4,20.75-3.8,31.13-.2,4.49-1.4,9.08-1.5,13.57-.1,2.99-1.5,5.79-1.5,8.78,0,2.49.1,4.69-.6,7.08-1.3,4.29-.1,10.38-.2,14.86-.2,8.38-1.5,16.76-1.5,25.24,0,18.66-1.5,37.21-1.5,55.87v26.44c0,1.8-.4,4.19,0,5.89.5,1.6,1.3-1.2.7-2.59"/>
      <path class="cls-2" d="m50.2,504.7c2.2,3.39.8,11.17.8,15.16,0,11.47-.2,22.95,0,34.42.1,6.58,3.1,12.77,3.1,19.25"/>
      <path class="cls-2" d="m41.8,555.98c0,13.57-.8,27.04-.8,40.5,0,9.58,1.5,18.76,1.5,28.33"/>
      <path class="cls-2" d="m47.1,605.67c0,12.27,1.1,24.84-1.9,36.71-2.7,10.77-3.3,25.64-9.6,35.12"/>
      <path class="cls-2" d="m50.2,656.15v15.96c0,7.88-3.1,15.06-3.1,22.85,0,4.99-.1,14.76-3.8,18.56"/>
      <path class="cls-2" d="m28.7,699.74c0,9.98.1,21.95,3.4,31.43,1.2,3.49.7,7.68,1.8,11.27.6,2,.5,5.99,1.9,7.68,1.6,2,3.5,6.38,4.4,8.88,1.1,3.09,3.2,5.89,3.8,9.18.5,2.59,2.4,6.29,3.9,8.68,1.1,1.8.6,6.19,2.3,7.08"/>
      <path class="cls-2" d="m16.5,718.9c0,7.28,2.3,14.07,2.3,21.45s.8,14.76.8,22.15c0,5.19.5,10.87,0,16.06-.6,4.99-3,9.58-3,14.57"/>
      <path class="cls-2" d="m91.6,793.02c0-3.49-.6-5.99-1.5-9.38-2.1-7.38-3.2-14.76-3.8-22.35-.7-9.08-.3-17.86-2.3-26.74-1.8-8.08-4.4-17.06-9.2-24.04-6.1-8.78-8.2-20.15-11.1-30.33-2.6-9.28-2.7-19.25-2.7-28.93v-20.15c0-5.89,1.3-10.77,2.3-16.56,1.9-11.07,7.6-21.45,10.4-32.32,4.1-16.16,8.7-32.42,11.4-48.88,5.4-33.32,11.7-67.44,7.9-101.26-1.9-17.36-4.2-34.82-6.1-52.18-1.5-13.57-4.2-26.94-6.1-40.4-1.7-11.77-2.7-24.04-2.9-35.91-.2-12.47-1.8-25.04-2.3-37.51-.2-4.49-1.1-9.28-1.6-13.77-.4-3.29-.6-6.78-1.3-9.98-.8-3.29-1.3-7.38-1.7-10.77-.3-3.39.4-7.78-1.6-10.67"/>
      <path class="cls-2" d="m83.9,146.76c-1.9,12.57,0,25.54,0,38.21,0,10.57-1.5,21.25-1.5,31.72v20.65c0,4.69,1.1,11.77-1.5,15.76"/>
      <path class="cls-2" d="m62.5,84.8c0,4.39,3.8,9.18,4.6,13.67,1.2,6.29,3.1,12.87,3.8,19.25.8,7.28,3.1,14.37,3.1,21.75v26.44c0,4.29-1.5,8.18-2.5,12.27-1.2,5.09-1.8,10.28-3.1,15.26-.4,1.6-.1,6.29-1.4,6.88"/>
      <path class="cls-2" d="m90.8,38.21c-8.7,16.86-11.5,35.52-11.5,54.27,0,8.58-.8,17.56.6,26.04.6,3.79.2,7.98.2,11.77,0,2.39,1.5,4.19,1.5,6.58"/>
      <path class="cls-2" d="m67.8,14.47c0,16.86,2.3,33.62,2.3,50.48"/>
      <path class="cls-2" d="m90.1,11.38c-6.7,0-13.3,12.37-14.7,18.06-1.7,6.68-2.9,13.27-2.9,20.25"/>
      <path class="cls-2" d="m61.7,54.97c4.4.5,3.8,13.37,3.8,16.86,0,6.29.8,12.67.8,19.15"/>
      <path class="cls-2" d="m77,50.38c-2.9,4.29-2.6,10.38-4,15.16-.8,2.79-.6,5.69-.6,8.58,0,6.09.8,12.47.8,18.36"/>
      <path class="cls-2" d="m87.8,68.74c0,13.27.8,26.14.8,39.41v17.16c0,4.89.8,10.67-.8,15.26"/>
      <path class="cls-2" d="m93.9,143.76c4.4,9.28,3.8,19.45,3.8,29.43,0,3.69-2.1,6.68-2.3,10.28-.1,2.1-.3,6.68-2.3,7.68"/>
      <path class="cls-2" d="m61.7,117.72c.3,8.68,2.3,17.46,2.3,26.14,0,3.69,1.8,7.48,2.3,11.27.6,4.59,3.4,8.28,5.4,12.27"/>
      <path class="cls-2" d="m74.7,190.35c2.6.3,1.5,13.47,1.5,15.66,0,5.69-2.2,9.38-6.1,13.37"/>
      <path class="cls-2" d="m93.1,220.18c-.7,8.48-2,17.56-3.4,25.94-1.1,6.48,0,13.47-1.3,19.95-1.9,8.88-.9,18.26-3.2,27.14-2,7.58-1.2,16.26-1.2,24.04"/>
      <path class="cls-2" d="m68.6,247.72c0,19.95-2.3,39.61-2.3,59.66,0,13.17-1.7,26.34-2.3,39.51-.6,13.87,0,27.83,0,41.6"/>
      <path class="cls-2" d="m92.4,294.4c0,7.18,1.5,14.17,1.5,21.45v15.26c0,9.98-1.5,20.05-1.5,29.83"/>
      <path class="cls-2" d="m70.9,324.23c.2,9.58,1.6,19.25.6,28.93-.9,8.68-1.4,17.36-1.4,26.14,0,11.77.8,23.54.8,35.22"/>
      <path class="cls-2" d="m93.9,368.63c4.3,4.89,2.3,16.86,2.3,22.85v15.36"/>
      <path class="cls-2" d="m74,364.04c3.8,10.08,3.1,20.75,3.1,31.33,0,6.68,1.5,13.17,1.5,19.85,0,9.58,1.5,18.76,1.5,28.33"/>
      <path class="cls-2" d="m64,416.02c0,13.17-2.3,26.24-2.3,39.31,0,11.37,1.2,22.45,1.5,33.72s1.5,22.35,1.5,33.62c0,6.88.8,14.86-2.3,21.05"/>
      <path class="cls-2" d="m70.9,437.36c0,18.26,0,36.31,2.3,54.37,1.4,10.77,1.6,21.75,1.6,32.72v12.07c0,5.59-1.9,9.98-3,15.26-.9,4.09-1.6,7.98-3.3,11.87-1.2,2.99-2.9,12.37-2.9,9.18"/>
      <path class="cls-2" d="m84.7,435.07c1.5,13.87,5.7,29.73,1.7,43.8-1,3.29.1,7.78-1.3,10.87-.7,1.6.1,3.39-.6,4.99-.6,1.5-1.2,2.59-1.4,4.19-.9,6.09-3.8,11.87-3.8,17.96"/>
      <path class="cls-2" d="m93.9,505.5c.3,6.68,1,12.47-.4,19.15-1,4.99-1,10.18-1.2,15.26-.1,3.69-1.5,7.28-1.5,11.07,0,3.49,0,9.28-1.1,12.67-1,2.79-.3,6.29-.4,9.18-.1,3.39-1.1,7.58-1.6,10.97-1.1,7.18-1.3,14.67-2.9,21.85-1.6,7.48-.9,16.06-.9,23.74v29.43c0,10.18,1.5,20.15,1.5,30.33,0,5.89.8,11.67.8,17.56,0,1.9.8,9.98.8,3.79"/>
      <path class="cls-2" d="m80.9,570.45c0,10.08-1.1,19.75-2.3,29.73-.5,4.79.3,10.57-1,15.16-.7,2.69-.6,5.29-1.5,7.98-.8,2.29,0,4.99-1,7.18-1.2,2.49.1,5.69-.8,8.28-.9,2.69-.5,5.69-1.5,8.48-2,5.29-1.5,12.57-2.5,18.26-.8,4.39-3.7,24.94,3.7,24.94"/>
      <path class="cls-2" d="m92.4,608.76c0,33.32-3.1,66.24-3.1,99.46,0,10.97,3.4,21.05,3.8,31.92.2,6.09,1,12.57,2.7,18.56,1.1,3.89,1.4,8.18,3.1,11.77,1.2,2.59,1.9,3.89,1.9-.3"/>
      <path class="cls-2" d="m67.1,703.53c0,18.46,1.8,37.01,2.3,55.37.2,6.98,1.5,13.77,1.5,20.75v7.18c0,2.29-.8,8.58.8,3.09"/>
      <path class="cls-2" d="m75.5,724.98c0,6.19,2.2,13.17,4,18.95.9,2.89,1.4,5.89,2.3,8.78.9,2.99.3,6.19,1.2,9.18.8,2.69.2,6.38.2,9.18,0,2.49.9,6.68-.2,8.98-.8,1.8-1.4,4.19-1.4,6.09,0,2,.1,4.69-1.5,3.09"/>
      <path class="cls-2" d="m60.9,722.69c0,12.37.8,25.34.8,37.31,0,3.79.1,11.77,1.9,15.06,1.5,2.69,1.1,14.86,5,14.86"/>
      <path class="cls-2" d="m94.7,13.67c-1.7.2-5.2,8.18-5.4,9.98-.3,2.49-1.9,5.29-3.4,7.28-1.1,1.4-1.4,4.79-2,6.48"/>
      <path class="cls-2" d="m94.7,26.74v21.05c0,5.19,3.1,14.96,0,19.45"/>
      <path class="cls-2" d="m109.2,15.27c0,7.88,2.9,15.76,3.1,23.84.2,9.28.2,19.15.8,28.43.8,11.67-.2,23.64,1.1,35.22.9,8.18.4,16.66.4,24.84,0,6.88.3,13.77-.6,20.65-1.6,12.67-2.5,25.44-2.5,38.21v18.06c0,2.59-.8,4.79-.8,7.38,0,4.49,0,7.48,0-.2"/>
      <path class="cls-2" d="m112.3,9.88c.2,1.5,1.9,2.19,2.5,3.69.6,1.7,1.6,3.09,2.2,4.79,1.3,3.99,4.3,7.28,5.5,11.17,1.8,5.99,5,11.17,6,17.56.7,4.79,2.3,9.28,2.3,14.17,0,18.86.8,38.01.8,56.96v15.06c0,6.09-1.5,12.07-1.5,18.16,0,14.57-2.1,29.13-3,43.6-1.3,20.15-4.3,40.4-6.6,60.46-.9,7.88-2.7,16.56-2.7,24.44,0,3.19-.8,5.39-3.8,6.88"/>
      <path class="cls-2" d="m119.2,49.69c0,36.71.8,73.43.8,110.14,0,7.88,1.5,15.76,1.5,23.74,0,6.98,1.3,15.66-.6,22.35-1.3,4.69-.9,10.67-1.7,15.46-.8,4.89-1,10.67-3.1,15.36-3.5,7.78-4.5,16.56-8,24.34-1.5,3.19-2.7,4.99-6.5,4.99"/>
      <path class="cls-2" d="m132.2,203.42c.9.1,2.3,5.89,2.3,7.08,0,7.48.8,14.86.8,22.35s-1.4,15.06-2.5,22.55c-1.9,12.87-.1,26.34-.6,39.31-1,22.45-5.3,44.69-7.8,67.04-1.4,12.17-5.3,23.84-7.1,36.01-.7,4.59-1.5,9.38-1.9,14.07-.1,1.1-.8,8.78-.8,4.29"/>
      <path class="cls-2" d="m104.6,280.64c.7,8.18,2.3,15.76,2.3,24.04,0,10.67.8,21.15,1.6,31.72.6,7.78.8,15.46,2.4,23.15.6,2.99,1.5,12.17,4.4,13.57"/>
      <path class="cls-2" d="m123,276.85c0,6.09.8,12.17.8,18.36,0,8.18-2.6,16.26-3.1,24.44-.4,7.88-.2,15.56-4.6,22.15"/>
      <path class="cls-2" d="m132.2,350.97c-1,17.16-.6,34.52-.8,51.88-.1,12.87-3.2,25.64-4.9,38.41-1.8,13.07-2.3,26.64-3.4,39.81-1,11.97-3.4,24.24-7,35.72-4,12.67-4,26.64-7.7,39.41-3.1,10.67-6.9,21.25-9.6,31.92-1.4,5.69-1.6,12.07-3.4,17.56"/>
      <path class="cls-2" d="m108.5,389.18c0,22.45-.8,44.79-.8,67.34,0,15.16-2.2,32.72,1.5,47.39"/>
      <path class="cls-2" d="m133.8,440.46c4.1,35.22-5.7,69.73-6.1,104.75-.4,28.43-1.5,56.86-1.5,85.3s-2.8,56.07-.7,84.1c1,12.97,3.9,28.03.7,40.9"/>
      <path class="cls-2" d="m118.4,789.23c0-4.39.2-8.68-.6-12.97-1.4-7.98-4.5-15.56-6.3-23.34-2.1-9.18-2.3-19.85-2.3-29.43v-32.42c0-11.97-1.2-24.74,1.4-36.41,1.1-4.99,3-10.67,3.2-15.86.2-4.39.5-10.08,1.9-14.27,1.7-5.09.4-10.87,1.5-16.06,1.1-4.89,1.8-10.77,1.9-15.66.1-5.09.8-11.27,1.7-16.26,1.1-5.89.2-12.57,1.7-18.16,1.5-5.29.4-12.07.4-17.56v-16.86"/>
      <path class="cls-2" d="m129.2,790.73c0,2.99,0-5.89,0-8.88,0-3.79,1.5-7.18,1.5-11.07,0-2.89-.1-5.19-1.7-7.68-.8-1.2-4.7-2.19-6.1-3.69-11-10.97-10.6-29.63-10.6-44.1v-46.29c0-3.29.8-7.58,1.9-10.67,1.4-3.89.2-8.48,1.5-12.27,1.4-3.99,1.9-9.08,2.6-13.37.7-4.09,1.6-8.48,1.6-12.67"/>
      <path class="cls-2" d="m136.1,574.34c1.9,17.26,1.7,36.51-2.5,53.57-1.1,4.69-.9,10.18-1.3,14.86-.4,4.69-.8,9.68-.8,14.37,0,7.78-1.3,15.76-1.5,23.54-.5,16.16-.8,31.92-.8,47.99,0,6.09-.8,12.27-.8,18.56,0,5.69,3.1,10.97,3.1,16.86"/>
      <path class="cls-2" d="m117.7,662.23c0,28.83.8,57.56.8,86.39"/>
      <path class="cls-2" d="m106.2,761.69v31.33"/>
      <path class="cls-2" d="m122.3,771.67c.3,2.29,1.5,3.89,1.5,6.48v19.45"/>
      <path class="cls-2" d="m135.3,767.78v29.83"/>
      <path class="cls-2" d="m112.3,566.66c0,4.59.8,9.68.8,14.57,0,5.59-2.3,10.67-2.3,16.06,0,2.39-1.4,4.79-1.5,6.88-.1,1.9-.5,4.99-1.4,6.88-1.5,3.29-1.7,10.08-1.7,13.77"/>
      <path class="cls-2" d="m123.8,405.24c0,16.36-4.8,32.22-8.3,48.19-1.4,6.29-2.5,12.37-2.5,18.76v11.37c0,2.1,1.5,3.69,1.5,5.79"/>
      <path class="cls-2" d="m115.4,500.12c0,11.67-10,20.65-10,32.12"/>
      <path class="cls-2" d="m113.8,291.31v31.43"/>
      <path class="cls-2" d="m123.8,12.97c0,6.68,4.4,12.77,4.6,19.25.2,4.79,3.1,8.98,3.1,13.57"/>
      <path class="cls-2" d="m124.6,8.38c2.6.3,5.5,11.27,6.1,13.47,1.3,4.39,5.4,9.58,5.4,14.07"/>
      <path class="cls-2" d="m115.4,26.74c0,4.99,1.9,11.27,4.6,15.26"/>
    </g>
    <rect class="cls-3" x="34.07" y="101.5" width="434.85" height="600" rx="20" ry="20"/>
    <rect class="cls-3" x="359" y="551.5" width="85" height="130"/>
    <rect class="cls-3" x="209" y="411.5" width="85" height="130"/>
    <rect class="cls-3" x="59" y="121.5" width="85" height="130"/>
    <rect class="cls-3" x="209" y="261.5" width="85" height="130"/>
  </g>
</svg>